<?xml version="1.0" encoding="utf-8"?>
<svg version="1.1" id="Layer_1" xmlns="http://www.w3.org/2000/svg" xmlns:xlink="http://www.w3.org/1999/xlink" x="0px" y="0px"
	 viewBox="0 0 400 400" style="enable-background:new 0 0 400 400;" xml:space="preserve">
<style type="text/css">
	.st0{stroke:#000000;stroke-miterlimit:10;}
</style>
<g>
	<path class="st0" d="M126.58,0c19.68,2.06,47.14,7.25,77.23,20.85c44.76,20.23,73.44,49.17,88.58,67.04
		c-19.66-15.54-50.06-35.77-91.09-50.02c-29.57-10.27-56.22-14.51-76.95-16.19C125.1,14.44,125.84,7.22,126.58,0z"/>
	<path class="st0" d="M75.82,72.05c26.06-5.69,76.8-12.94,135.83,4.57c35.7,10.59,62.75,26.77,80.74,39.72
		c-23.82-10.43-61.02-23.36-108.16-26.82c-43.13-3.17-78.91,2.75-103.1,8.71C79.36,89.5,77.59,80.78,75.82,72.05z"/>
	<path class="st0" d="M89.77,31.72c22.18-1.84,55.64-1.84,94.06,9.07c55.78,15.84,92.82,46.4,111.06,63.83
		c-22.98-14.45-60.58-34.06-110.64-43.52c-37.28-7.04-69.5-6.19-92.82-3.71C90.89,48.84,90.33,40.28,89.77,31.72z"/>
	<path d="M78.03,111.42c7.77-1.89,15.53-3.78,23.3-5.67c-0.42,22.67-0.84,45.34-1.26,68.01c5.88-9.03,11.76-18.05,17.63-27.08
		c5.67,9.45,11.34,18.89,17,28.34c0-24.14,0-48.28,0-72.42c17.67-0.27,41.37-0.35,69.79,0.35c32.27,0.79,71.27,17.29,71.27,17.29
		c5.51,3.06,27.25,15.96,35.87,42.98c5.91,18.52,2.56,33.95,1.67,37.67c-8.57,35.81-44.1,50.58-48.25,52.23
		c23.17,48.96,46.34,97.93,69.51,146.89c-50.67-26.71-101.34-53.42-152-80.14c-39.04,25.61-78.09,51.22-117.13,76.83
		C69.63,301.6,73.83,206.51,78.03,111.42z"/>
</g>
</svg>
